<svg fill="none" stroke="currentColor" height="32" viewBox="0 0 32 32" width="32" xmlns="http://www.w3.org/2000/svg"><g stroke-linejoin="round" stroke-miterlimit="10" stroke-width="2"><path d="m23.3333 12.6667h-5.3333c-.7072 0-1.3855.2809-1.8856.781s-.7811 1.1784-.7811 1.8856v8c0 .7073.281 1.3856.7811 1.8857.5001.5 1.1784.781 1.8856.781h5.3333c.7073 0 1.3856-.281 1.8857-.781.5001-.5001.781-1.1784.781-1.8857v-8c0-.7072-.2809-1.3855-.781-1.8856s-1.1784-.781-1.8857-.781z"/><path d="m11.3333 23.3333h-2.66663c-.70725 0-1.38552-.2809-1.88562-.781s-.78105-1.1784-.78105-1.8856v-12.00003c0-.70725.28095-1.38552.78105-1.88562s1.17837-.78105 1.88562-.78105h9.33333c.7072 0 1.3855.28095 1.8856.78105s.7811 1.17837.7811 1.88562"/></g></svg>
